<svg width="67" height="19" viewBox="0 0 67 19" fill="none" xmlns="http://www.w3.org/2000/svg">
<path d="M3.82994 11.56C3.8726 12.072 3.9846 12.5093 4.16594 12.872C4.35794 13.224 4.59794 13.512 4.88594 13.736C5.1846 13.96 5.52594 14.1253 5.90994 14.232C6.29394 14.328 6.7046 14.376 7.14194 14.376C7.65394 14.376 8.0966 14.312 8.46994 14.184C8.84327 14.056 9.14727 13.8853 9.38194 13.672C9.6166 13.448 9.78727 13.192 9.89394 12.904C10.0113 12.616 10.0699 12.312 10.0699 11.992C10.0699 11.544 9.9686 11.1813 9.76594 10.904C9.56327 10.6267 9.2966 10.4027 8.96594 10.232C8.64594 10.0507 8.2726 9.90667 7.84594 9.8C7.42994 9.69333 6.99794 9.592 6.54994 9.496C6.1126 9.38933 5.6806 9.26667 5.25394 9.128C4.83794 8.98933 4.4646 8.80267 4.13394 8.568C3.81394 8.33333 3.5526 8.03467 3.34994 7.672C3.14727 7.29867 3.04594 6.82933 3.04594 6.264C3.04594 5.86933 3.12594 5.48533 3.28594 5.112C3.4566 4.73867 3.70194 4.408 4.02194 4.12C4.3526 3.832 4.76327 3.60267 5.25394 3.432C5.7446 3.26133 6.30994 3.176 6.94994 3.176C7.6006 3.176 8.16594 3.26667 8.64594 3.448C9.1366 3.62933 9.54194 3.88 9.86194 4.2C10.1819 4.50933 10.4219 4.872 10.5819 5.288C10.7419 5.704 10.8219 6.14667 10.8219 6.616H9.78194C9.78194 6.17867 9.70194 5.8 9.54194 5.48C9.3926 5.16 9.1846 4.89867 8.91794 4.696C8.65127 4.49333 8.34727 4.344 8.00594 4.248C7.6646 4.152 7.3126 4.104 6.94994 4.104C6.39527 4.104 5.92594 4.184 5.54194 4.344C5.1686 4.49333 4.86994 4.69067 4.64594 4.936C4.42194 5.18133 4.26727 5.45333 4.18194 5.752C4.0966 6.05067 4.0806 6.34933 4.13394 6.648C4.19794 7.02133 4.34727 7.32 4.58194 7.544C4.8166 7.768 5.1046 7.95467 5.44594 8.104C5.78727 8.24267 6.1606 8.36 6.56594 8.456C6.98194 8.54133 7.40327 8.63733 7.82994 8.744C8.2566 8.84 8.66727 8.95733 9.06194 9.096C9.46727 9.23467 9.8246 9.42133 10.1339 9.656C10.4433 9.89067 10.6886 10.1947 10.8699 10.568C11.0619 10.9307 11.1579 11.3893 11.1579 11.944C11.1579 13.0107 10.7899 13.8373 10.0539 14.424C9.31794 15.0107 8.28327 15.304 6.94994 15.304C6.3526 15.304 5.79794 15.224 5.28594 15.064C4.77394 14.9147 4.33127 14.6853 3.95794 14.376C3.5846 14.056 3.29127 13.6667 3.07794 13.208C2.87527 12.7387 2.77394 12.1893 2.77394 11.56H3.82994ZM14.0912 10.888C14.0912 11.3573 14.1552 11.8053 14.2832 12.232C14.4112 12.648 14.5925 13.016 14.8272 13.336C15.0725 13.6453 15.3659 13.896 15.7072 14.088C16.0592 14.2693 16.4539 14.36 16.8912 14.36C17.3819 14.36 17.8085 14.264 18.1712 14.072C18.5445 13.8693 18.8485 13.5973 19.0832 13.256C19.3179 12.9147 19.4885 12.52 19.5952 12.072C19.7019 11.6133 19.7445 11.1227 19.7232 10.6C19.7232 10.0773 19.6485 9.61867 19.4992 9.224C19.3605 8.81867 19.1632 8.47733 18.9072 8.2C18.6512 7.92267 18.3525 7.71467 18.0112 7.576C17.6699 7.42667 17.2965 7.352 16.8912 7.352C16.4432 7.352 16.0432 7.44267 15.6912 7.624C15.3392 7.80533 15.0459 8.056 14.8112 8.376C14.5765 8.68533 14.3952 9.05867 14.2672 9.496C14.1499 9.92267 14.0912 10.3867 14.0912 10.888ZM14.0912 18.264H13.1312V6.712H14.0912V8.168H14.1232C14.2619 7.90133 14.4379 7.66133 14.6512 7.448C14.8752 7.23467 15.1152 7.05867 15.3712 6.92C15.6379 6.78133 15.9099 6.67467 16.1872 6.6C16.4645 6.52533 16.7365 6.488 17.0032 6.488C17.6752 6.488 18.2459 6.6 18.7152 6.824C19.1845 7.048 19.5685 7.35733 19.8672 7.752C20.1765 8.136 20.4005 8.59467 20.5392 9.128C20.6779 9.66133 20.7472 10.232 20.7472 10.84C20.7472 11.416 20.6725 11.9707 20.5232 12.504C20.3739 13.0373 20.1445 13.5067 19.8352 13.912C19.5365 14.3067 19.1525 14.6267 18.6832 14.872C18.2245 15.1067 17.6805 15.224 17.0512 15.224C16.4645 15.224 15.8992 15.096 15.3552 14.84C14.8219 14.5733 14.4005 14.184 14.0912 13.672V18.264ZM22.9444 15V3.48H23.9044V15H22.9444ZM26.2101 15V6.712H27.1701V15H26.2101ZM26.1621 4.904V3.48H27.2181V4.904H26.1621ZM32.5249 15.032C32.4076 15.0533 32.2529 15.0907 32.0609 15.144C31.8689 15.1973 31.6556 15.224 31.4209 15.224C30.9409 15.224 30.5729 15.1067 30.3169 14.872C30.0716 14.6267 29.9489 14.1947 29.9489 13.576V7.512H28.7809V6.712H29.9489V4.408H30.9089V6.712H32.4609V7.512H30.9089V13.192C30.9089 13.3947 30.9143 13.5707 30.9249 13.72C30.9356 13.8693 30.9676 13.992 31.0209 14.088C31.0743 14.184 31.1543 14.2533 31.2609 14.296C31.3783 14.3387 31.5383 14.36 31.7409 14.36C31.8689 14.36 31.9969 14.3493 32.1249 14.328C32.2636 14.3067 32.3969 14.28 32.5249 14.248V15.032Z" fill="black"/>
<path d="M41.8281 9.96875H36.2344V12.9297H42.6094V15H33.8828V3.48438H42.3281V5.52344H36.2344V7.96875H41.8281V9.96875ZM44.625 7.40625C45.2135 6.65625 46.224 6.28125 47.6562 6.28125C48.5885 6.28125 49.4167 6.46615 50.1406 6.83594C50.8646 7.20573 51.2266 7.90365 51.2266 8.92969V12.8359C51.2266 13.1068 51.2318 13.4349 51.2422 13.8203C51.2578 14.112 51.3021 14.3099 51.375 14.4141C51.4479 14.5182 51.5573 14.6042 51.7031 14.6719V15H49.2812C49.2135 14.8281 49.1667 14.6667 49.1406 14.5156C49.1146 14.3646 49.0938 14.1927 49.0781 14C48.7708 14.3333 48.4167 14.6172 48.0156 14.8516C47.5365 15.1276 46.9948 15.2656 46.3906 15.2656C45.6198 15.2656 44.9818 15.0469 44.4766 14.6094C43.9766 14.1667 43.7266 13.5417 43.7266 12.7344C43.7266 11.6875 44.1302 10.9297 44.9375 10.4609C45.3802 10.2057 46.0312 10.0234 46.8906 9.91406L47.6484 9.82031C48.0599 9.76823 48.3542 9.70312 48.5312 9.625C48.849 9.48958 49.0078 9.27865 49.0078 8.99219C49.0078 8.64323 48.8854 8.40365 48.6406 8.27344C48.401 8.13802 48.0469 8.07031 47.5781 8.07031C47.0521 8.07031 46.6797 8.20052 46.4609 8.46094C46.3047 8.65365 46.2005 8.91406 46.1484 9.24219H44C44.0469 8.4974 44.2552 7.88542 44.625 7.40625ZM46.2812 13.3906C46.4896 13.5625 46.7448 13.6484 47.0469 13.6484C47.526 13.6484 47.9661 13.5078 48.3672 13.2266C48.7734 12.9453 48.9844 12.4323 49 11.6875V10.8594C48.8594 10.9479 48.7161 11.0208 48.5703 11.0781C48.4297 11.1302 48.2344 11.1797 47.9844 11.2266L47.4844 11.3203C47.0156 11.4036 46.6797 11.5052 46.4766 11.625C46.1328 11.8281 45.9609 12.1432 45.9609 12.5703C45.9609 12.9505 46.0677 13.224 46.2812 13.3906ZM57.1094 13.4141V15.0781L56.0547 15.1172C55.0026 15.1536 54.2839 14.9714 53.8984 14.5703C53.6484 14.3151 53.5234 13.9219 53.5234 13.3906V8.14844H52.3359V6.5625H53.5234V4.1875H55.7266V6.5625H57.1094V8.14844H55.7266V12.6484C55.7266 12.9974 55.7708 13.2161 55.8594 13.3047C55.9479 13.388 56.2188 13.4297 56.6719 13.4297C56.7396 13.4297 56.8099 13.4297 56.8828 13.4297C56.9609 13.4245 57.0365 13.4193 57.1094 13.4141ZM64.4062 6.875C65.0729 7.30208 65.4557 8.03646 65.5547 9.07812H63.3281C63.2969 8.79167 63.2161 8.5651 63.0859 8.39844C62.8411 8.09635 62.4245 7.94531 61.8359 7.94531C61.3516 7.94531 61.0052 8.02083 60.7969 8.17188C60.5938 8.32292 60.4922 8.5 60.4922 8.70312C60.4922 8.95833 60.6016 9.14323 60.8203 9.25781C61.0391 9.3776 61.8125 9.58333 63.1406 9.875C64.026 10.0833 64.6901 10.3984 65.1328 10.8203C65.5703 11.2474 65.7891 11.7812 65.7891 12.4219C65.7891 13.2656 65.474 13.9557 64.8438 14.4922C64.2188 15.0234 63.25 15.2891 61.9375 15.2891C60.599 15.2891 59.6094 15.0078 58.9688 14.4453C58.3333 13.8776 58.0156 13.1562 58.0156 12.2812H60.2734C60.3203 12.6771 60.4219 12.9583 60.5781 13.125C60.8542 13.4219 61.3646 13.5703 62.1094 13.5703C62.5469 13.5703 62.8932 13.5052 63.1484 13.375C63.4089 13.2448 63.5391 13.0495 63.5391 12.7891C63.5391 12.5391 63.4349 12.349 63.2266 12.2188C63.0182 12.0885 62.2448 11.8646 60.9062 11.5469C59.9427 11.3073 59.263 11.0078 58.8672 10.6484C58.4714 10.2943 58.2734 9.78385 58.2734 9.11719C58.2734 8.33073 58.5807 7.65625 59.1953 7.09375C59.8151 6.52604 60.6849 6.24219 61.8047 6.24219C62.8672 6.24219 63.7344 6.45312 64.4062 6.875Z" fill="black"/>
</svg>
